<?xml version="1.0" encoding="UTF-8" standalone="no"?>
<!-- Created with Inkscape (http://www.inkscape.org/) -->

<svg
   xmlns:dc="http://purl.org/dc/elements/1.1/"
   xmlns:cc="http://creativecommons.org/ns#"
   xmlns:rdf="http://www.w3.org/1999/02/22-rdf-syntax-ns#"
   xmlns:svg="http://www.w3.org/2000/svg"
   xmlns="http://www.w3.org/2000/svg"
   version="1.1"
   width="431"
   height="461"
   id="svg3039">
  <metadata
     id="metadata3045">
    <rdf:RDF>
      <cc:Work
         rdf:about="">
        <dc:format>image/svg+xml</dc:format>
        <dc:type
           rdf:resource="http://purl.org/dc/dcmitype/StillImage" />
        <dc:title></dc:title>
      </cc:Work>
    </rdf:RDF>
  </metadata>
  <defs
     id="defs3043" />
  <path
     d="m 185.59322,434.66434 c -9.49818,-1.29452 -42.47229,-11.16344 -49.60058,-14.84512 -2.29169,-1.18363 -2.67533,-2.14364 -3.22992,-8.08263 -0.34613,-3.7067 -0.13964,-9.89563 0.45888,-13.75316 1.98512,-12.79445 -0.66747,-20.85096 -10.2145,-31.02364 -14.17518,-15.10415 -32.316656,-20.29201 -47.847836,-13.6829 -7.93584,3.37701 -17.19651,5.50675 -20.03181,4.60686 -5.02594,-1.59518 -32.03423,-47.06076 -32.03423,-53.92623 0,-4.32817 6.09752,-11.34243 15.13489,-17.41034 8.89298,-5.97098 14.13977,-14.61628 15.94955,-26.28061 2.72738,-17.57838 -4.54935,-34.65582 -17.71263,-41.56898 -3.2295,-1.69608 -7.67181,-3.64869 -9.87181,-4.33912 -5.42978,-1.70404 -11.47596,-5.30728 -14.89661,-8.87767 -2.8321498,-2.95612 -2.8336298,-2.96486 -1.6591,-9.78334 3.05079,-17.71067 11.35256,-47.63236 14.34022,-51.68581 2.17287,-2.948 11.51619,-4.18505 21.4223,-2.83631 13.8987,1.89233 19.98606,-0.38751 31.36172,-11.74561 15.40886,-15.38508 20.7533,-32.174338 14.66102,-46.056848 -1.32751,-3.025 -2.96338,-8.875001 -3.63528,-13.000001 l -1.22163,-7.5 3.47005,-3 c 8.44301,-7.29931 43.037876,-26.626113 50.238356,-28.066209 2.58353,-0.516707 3.75113,0.05935 8.16633,4.028987 2.83348,2.547544 6.73864,6.793628 8.67813,9.435743 6.85998,9.345163 15.90448,13.101479 31.54589,13.101479 22.55824,0 35.17355,-7.194078 41.91199,-23.900959 1.86087,-4.613718 4.95763,-10.13107 6.8817,-12.260782 3.40606,-3.770107 3.63325,-3.85581 8.61661,-3.25042 13.62641,1.65537 39.66257,8.598637 50.25726,13.402496 7.59347,3.443046 7.84853,4.270961 6.90409,22.410302 l -0.68203,13.099363 3.05385,6.06251 c 2.77543,5.509801 10.51678,14.234881 17.08513,19.256241 6.72432,5.1406 19.89725,10.144438 26.77153,10.169378 1.79934,0.007 7.23712,-1.53772 12.08396,-3.431658 4.84684,-1.89394 11.09517,-3.74635 13.8852,-4.11646 l 5.07276,-0.67292 5.39419,7.366448 c 11.3681,15.52462 22.37922,35.59933 25.81383,47.062 0.66886,2.23224 0.21207,3.46002 -2.65767,7.14347 -1.90595,2.44636 -6.16601,6.40837 -9.46681,8.80446 -8.48191,6.15712 -11.83174,13.07614 -12.60489,26.03513 -0.65911,11.04769 0.71937,20.33104 4.37481,29.46219 3.53475,8.82965 8.9444,14.13632 18.02536,17.68223 3.95574,1.54463 9.24324,4.37446 11.75,6.28851 4.14036,3.1614 4.5569,3.86508 4.54867,7.68428 -0.026,12.07505 -13.602,56.3553 -17.99969,58.70887 -2.45158,1.31205 -15.5963,1.27337 -21.83336,-0.0642 -18.13127,-3.88846 -42.6463,18.94568 -44.76028,41.69126 -0.62578,6.73316 -0.47395,7.44255 3.62736,16.9478 2.43835,5.65116 4.47742,12.11002 4.73812,15.0082 l 0.45765,5.0877 -6.74752,5.05317 c -12.16324,9.10896 -34.29763,21.2249 -45.38091,24.84063 -6.70737,2.18816 -8.53659,1.37691 -14.83121,-6.57758 -2.39012,-3.02039 -5.75187,-7.23845 -7.47055,-9.37347 -4.90221,-6.08974 -12.22219,-8.94751 -24.20278,-9.44894 -11.38609,-0.47654 -18.17926,0.75284 -27.58777,4.99267 -9.43292,4.25081 -14.17179,9.34722 -17.91603,19.26769 -1.69845,4.50012 -4.4761,10.06943 -6.17254,12.37623 -3.25716,4.42904 -4.78257,4.79799 -14.41143,3.48566 z M 243.1771,333.80741 c 20.16969,-4.09632 38.56335,-13.6262 53.81983,-27.8844 46.29534,-43.26613 46.30009,-117.30262 0.0103,-161.05828 -51.95465,-49.110408 -135.87944,-36.68612 -171.83966,25.43928 -11.20658,19.36065 -16.45417,43.89406 -14.08851,65.86619 5.1571,47.89888 39.13191,86.35073 86.01414,97.34869 12.15143,2.85056 32.83128,2.98004 46.08388,0.28852 z m -74.76389,-32.78009 c -3.21196,-2.94354 -3.74249,-4.11516 -4.41497,-9.75 -0.92605,-7.75961 -0.89841,-119.79664 0.0318,-128.77565 0.58828,-5.67855 1.06086,-6.73854 4.34693,-9.75 3.1826,-2.91663 4.3859,-3.37879 8.79721,-3.37879 3.62526,0 5.98721,0.6244 8.12783,2.14866 5.4129,3.85432 5.79123,6.16167 5.79123,35.31922 l -2e-5,26.53212 27,0 27,0 0,-27.95789 0,-27.9579 3.84516,-4.0421 c 3.58654,-3.77024 4.21644,-4.04211 9.36515,-4.04211 6.15121,0 9.72724,2.04476 12.30967,7.03864 2.22086,4.29467 2.22086,136.62805 0,140.92272 -2.58243,4.99388 -6.15846,7.03864 -12.30967,7.03864 -5.14871,0 -5.77861,-0.27187 -9.36515,-4.04211 l -3.84516,-4.0421 0,-27.9579 0,-27.95789 -27,0 -27,0 0,26.53212 c 0,29.15755 -0.37833,31.4649 -5.79123,35.31922 -2.14062,1.52426 -4.50257,2.14866 -8.12783,2.14866 -4.4013,0 -5.61681,-0.46417 -8.76095,-3.34556 z"
     id="path3049"
     style="fill:#000000" />
</svg>
